<?xml version="1.0" encoding="UTF-8" standalone="no"?>
<!DOCTYPE svg PUBLIC "-//W3C//DTD SVG 1.1//EN" "http://www.w3.org/Graphics/SVG/1.1/DTD/svg11.dtd">
<svg width="100%" height="100%" viewBox="0 0 256 256" version="1.1" xmlns="http://www.w3.org/2000/svg" xmlns:xlink="http://www.w3.org/1999/xlink" xml:space="preserve" xmlns:serif="http://www.serif.com/" style="fill-rule:evenodd;clip-rule:evenodd;stroke-linejoin:round;stroke-miterlimit:2;">
    <g>
        <path d="M189.059,229.622c-15.447,0 -29.002,-3.928 -40.231,-11.522l-0.007,-0.004c-19.303,-13.129 -30.848,-34.46 -30.848,-57.078c-0,-5.133 4.199,-9.332 9.332,-9.332c5.133,-0 9.332,4.199 9.332,9.332c0,16.426 8.507,31.959 22.712,41.604l0.003,0.002c8.258,5.623 17.993,8.333 29.707,8.333c2.854,0 7.669,-0.299 12.426,-1.131c5.03,-0.918 9.887,2.505 10.819,7.536c0.933,5.039 -2.493,9.909 -7.532,10.843c-0.006,0.001 -0.011,0.002 -0.017,0.003c-7.526,1.351 -13.895,1.414 -15.696,1.414Zm0,-3.126c1.738,0 7.882,-0.062 15.144,-1.365c3.351,-0.621 5.648,-3.848 5.027,-7.2c-0.621,-3.351 -3.848,-5.647 -7.199,-5.027c-4.965,0.869 -9.993,1.179 -12.972,1.179c-12.413,0 -22.715,-2.917 -31.466,-8.875c-15.082,-10.24 -24.081,-26.75 -24.081,-44.19c-0,-3.413 -2.793,-6.206 -6.207,-6.206c-3.413,-0 -6.206,2.793 -6.206,6.206c-0,21.599 11.047,41.956 29.48,54.493c10.737,7.261 23.709,10.985 38.48,10.985Z" style="fill-opacity:0.17;"/>
        <path d="M164.047,255.255c-0.884,-0 -1.765,-0.119 -2.548,-0.389c-20.331,-5.559 -33.598,-13.115 -47.382,-26.835c-17.855,-17.713 -27.875,-41.872 -27.797,-67.013c-0,-21.856 18.492,-39.682 41.357,-39.682c22.866,0 41.358,17.826 41.358,39.682c0,11.622 10.257,21.017 22.693,21.017c12.436,0 22.693,-9.341 22.693,-21.017c-0,-45.124 -38.988,-81.716 -86.806,-81.716c-34.089,0 -65.209,18.889 -79.228,48.245l-0.004,0.009c-4.652,9.662 -6.952,20.938 -6.952,33.462c-0,9.446 0.852,24.341 8.057,43.656c0.002,0.007 0.005,0.013 0.007,0.02c1.767,4.834 -0.641,10.137 -5.475,11.997c-0.017,0.006 -0.033,0.012 -0.05,0.018c-4.834,1.767 -10.137,-0.641 -11.997,-5.476c-0.003,-0.01 -0.007,-0.02 -0.011,-0.03c-6.218,-16.686 -9.258,-33.055 -9.258,-50.185c-0,-15.4 2.973,-29.383 8.812,-41.511c17.078,-35.684 54.787,-58.808 96.037,-58.808c58.183,0 105.471,45.079 105.471,100.381c-0,21.857 -18.56,39.682 -41.358,39.682c-22.798,0 -41.358,-17.825 -41.358,-39.682c0,-11.621 -10.256,-21.017 -22.693,-21.017c-12.436,0 -22.692,9.341 -22.692,21.017c-0,20.326 7.926,39.461 22.291,53.767c11.329,11.269 22.367,17.486 39.27,22.102c0.01,0.002 0.019,0.005 0.028,0.007c4.94,1.398 7.894,6.537 6.506,11.477c-1.126,4.108 -4.859,6.822 -8.971,6.822Zm0,-3.126c2.731,-0 5.214,-1.8 5.958,-4.531c0.931,-3.289 -1.055,-6.703 -4.344,-7.634c-17.502,-4.779 -28.922,-11.233 -40.652,-22.902c-14.958,-14.895 -23.212,-34.818 -23.212,-55.982c-0,-13.344 11.606,-24.143 25.818,-24.143c14.213,0 25.819,10.862 25.819,24.143c0,20.171 17.192,36.556 38.232,36.556c21.04,0 38.232,-16.385 38.232,-36.556c-0,-53.623 -45.928,-97.255 -102.345,-97.255c-40.031,0 -76.649,22.406 -93.22,57.038c-5.648,11.73 -8.503,25.26 -8.503,40.155c-0,16.758 2.979,32.77 9.061,49.093c1.241,3.228 4.779,4.841 8.006,3.662c3.228,-1.241 4.841,-4.779 3.662,-8.006c-7.385,-19.799 -8.254,-35.067 -8.254,-44.749c-0,-13.033 2.42,-24.763 7.261,-34.818c14.523,-30.411 46.735,-50.024 82.049,-50.024c49.59,0 89.932,38.046 89.932,84.842c-0,13.344 -11.606,24.143 -25.819,24.143c-14.213,0 -25.819,-10.861 -25.819,-24.143c0,-20.171 -17.13,-36.556 -38.232,-36.556c-21.101,0 -38.231,16.385 -38.231,36.556c-0.075,24.315 9.612,47.671 26.874,64.796c13.406,13.343 26.315,20.667 46.114,26.067c0.496,0.186 1.055,0.248 1.613,0.248Z" style="fill-opacity:0.17;"/>
        <path d="M100.121,252.586c-2.421,0 -4.755,-0.915 -6.617,-2.777c-0.004,-0.005 -0.009,-0.009 -0.013,-0.013c-10.955,-11.082 -16.904,-18.115 -25.453,-33.377c-8.809,-15.702 -13.495,-34.909 -13.495,-55.463c-0,-38.545 32.888,-70.031 73.445,-70.031c40.556,-0 73.445,31.421 73.445,70.031c-0,5.133 -4.2,9.333 -9.333,9.333c-5.132,-0 -9.332,-4.2 -9.332,-9.333c-0,-28.37 -24.593,-51.366 -54.78,-51.366c-30.129,-0 -54.78,22.996 -54.78,51.366c-0,17.302 3.815,33.289 11.084,46.326c7.826,13.953 13.047,19.958 22.384,29.355c3.624,3.624 3.633,9.549 -0.004,13.116c-1.737,1.948 -4.18,2.833 -6.551,2.833Zm-0,-3.126c1.551,0 3.165,-0.558 4.282,-1.862c2.483,-2.358 2.483,-6.33 0.062,-8.751c-9.558,-9.62 -14.895,-15.764 -22.901,-30.039c-7.51,-13.468 -11.482,-29.977 -11.482,-47.852c-0,-30.039 26.005,-54.492 57.906,-54.492c31.963,-0 57.906,24.453 57.906,54.492c-0,3.414 2.793,6.207 6.206,6.207c3.414,-0 6.207,-2.793 6.207,-6.207c-0,-36.928 -31.529,-66.905 -70.319,-66.905c-38.791,-0 -70.319,30.039 -70.319,66.905c-0,19.985 4.53,38.666 13.095,53.934c8.379,14.958 14.213,21.847 24.95,32.708c1.242,1.241 2.793,1.862 4.407,1.862Z" style="fill-opacity:0.17;"/>
        <path d="M22.478,102.825c-1.838,-0 -3.679,-0.54 -5.334,-1.643c-0.021,-0.014 -0.043,-0.029 -0.064,-0.044c-2.476,-1.741 -3.953,-4.586 -3.953,-7.613c0,-1.925 0.598,-3.804 1.71,-5.376c12.583,-17.794 28.662,-31.774 47.727,-41.624c39.912,-20.622 90.929,-20.686 130.904,-0.127l0.002,0.001c18.999,9.786 35.013,23.636 47.658,41.302l0.006,0.007c2.99,4.205 2.042,9.996 -2.163,12.987c-4.195,2.983 -10.065,2.031 -13.045,-2.159c-10.874,-15.224 -24.646,-27.19 -40.958,-35.527l-0.006,-0.003c-34.751,-17.86 -79.128,-17.799 -113.818,0.121c-16.373,8.458 -30.207,20.482 -41.021,35.828c-0.014,0.02 -0.029,0.04 -0.044,0.06c-1.854,2.504 -4.726,3.81 -7.601,3.81Zm0,-3.126c1.924,-0 3.848,-0.869 5.089,-2.545c11.11,-15.764 25.323,-28.115 42.142,-36.804c35.563,-18.371 81.056,-18.433 116.681,-0.124c16.758,8.565 30.909,20.853 42.08,36.494c1.986,2.792 5.896,3.413 8.689,1.427c2.793,-1.986 3.414,-5.834 1.428,-8.627c-12.351,-17.254 -27.991,-30.784 -46.549,-40.342c-39.1,-20.109 -89,-20.047 -128.039,0.124c-18.619,9.62 -34.321,23.274 -46.61,40.652c-0.739,1.044 -1.136,2.292 -1.136,3.571c0,2.011 0.981,3.9 2.625,5.056c1.118,0.745 2.359,1.118 3.6,1.118Z" style="fill-opacity:0.17;"/>
        <path d="M200.107,37.657c-1.451,-0 -2.817,-0.341 -4.177,-0.976c-0.038,-0.018 -0.076,-0.037 -0.114,-0.056c-23.278,-12.034 -43.514,-17.215 -67.704,-17.215c-24.106,-0 -46.816,5.766 -67.644,17.121c-0.051,0.028 -0.103,0.054 -0.156,0.08c-1.253,0.594 -2.623,0.902 -4.01,0.902c-5.133,0 -9.357,-4.224 -9.357,-9.357c-0,-3.232 1.674,-6.243 4.419,-7.949c0.051,-0.031 0.103,-0.061 0.156,-0.09c23.61,-12.85 49.373,-19.372 76.592,-19.372c26.945,0 50.479,5.933 76.27,19.271c4.57,2.332 6.365,8.014 4.033,12.584c-0.007,0.014 -0.015,0.028 -0.022,0.042c-1.675,3.163 -4.937,5.015 -8.286,5.015Zm-0,-3.126c2.234,-0 4.406,-1.241 5.523,-3.352c1.552,-3.041 0.373,-6.827 -2.668,-8.378c-25.323,-13.096 -48.411,-18.93 -74.85,-18.93c-26.688,0 -51.948,6.393 -75.098,18.992c-1.828,1.135 -2.943,3.141 -2.943,5.293c-0,3.418 2.813,6.231 6.231,6.231c0.924,0 1.836,-0.205 2.67,-0.601c21.288,-11.606 44.5,-17.502 69.14,-17.502c24.702,-0 45.369,5.275 69.14,17.564c0.931,0.435 1.862,0.683 2.855,0.683Z" style="fill-opacity:0.17;"/>
        <path d="M189.059,226.496c-14.771,0 -27.743,-3.724 -38.48,-10.985c-18.433,-12.537 -29.48,-32.894 -29.48,-54.493c-0,-3.413 2.793,-6.206 6.206,-6.206c3.414,-0 6.207,2.793 6.207,6.206c-0,17.44 8.999,33.95 24.081,44.19c8.751,5.958 19.053,8.875 31.466,8.875c2.979,0 8.007,-0.31 12.972,-1.179c3.351,-0.62 6.578,1.676 7.199,5.027c0.621,3.352 -1.676,6.579 -5.027,7.2c-7.262,1.303 -13.406,1.365 -15.144,1.365Z" style="fill:#8200e1;fill-rule:nonzero;"/>
        <path d="M164.047,252.129c-0.558,-0 -1.117,-0.062 -1.613,-0.248c-19.799,-5.4 -32.708,-12.724 -46.114,-26.067c-17.262,-17.125 -26.949,-40.481 -26.874,-64.796c-0,-20.171 17.13,-36.556 38.231,-36.556c21.102,0 38.232,16.385 38.232,36.556c0,13.282 11.606,24.143 25.819,24.143c14.213,0 25.819,-10.799 25.819,-24.143c-0,-46.796 -40.342,-84.842 -89.932,-84.842c-35.314,0 -67.526,19.613 -82.049,50.024c-4.841,10.055 -7.261,21.785 -7.261,34.818c-0,9.682 0.869,24.95 8.254,44.749c1.179,3.227 -0.434,6.765 -3.662,8.006c-3.227,1.179 -6.765,-0.434 -8.006,-3.662c-6.082,-16.323 -9.061,-32.335 -9.061,-49.093c-0,-14.895 2.855,-28.425 8.503,-40.155c16.571,-34.632 53.189,-57.038 93.22,-57.038c56.417,0 102.345,43.632 102.345,97.255c-0,20.171 -17.192,36.556 -38.232,36.556c-21.04,0 -38.232,-16.385 -38.232,-36.556c0,-13.281 -11.606,-24.143 -25.819,-24.143c-14.212,0 -25.818,10.799 -25.818,24.143c-0,21.164 8.254,41.087 23.212,55.982c11.73,11.669 23.15,18.123 40.652,22.902c3.289,0.931 5.275,4.345 4.344,7.634c-0.744,2.731 -3.227,4.531 -5.958,4.531Z" style="fill:#e17a00;fill-rule:nonzero;"/>
        <path d="M100.121,249.46c-1.614,0 -3.165,-0.621 -4.407,-1.862c-10.737,-10.861 -16.571,-17.75 -24.95,-32.708c-8.565,-15.268 -13.095,-33.949 -13.095,-53.934c-0,-36.866 31.528,-66.905 70.319,-66.905c38.79,-0 70.319,29.977 70.319,66.905c-0,3.414 -2.793,6.207 -6.207,6.207c-3.413,-0 -6.206,-2.793 -6.206,-6.207c-0,-30.039 -25.943,-54.492 -57.906,-54.492c-31.901,-0 -57.906,24.453 -57.906,54.492c-0,17.875 3.972,34.384 11.482,47.852c8.006,14.275 13.343,20.419 22.901,30.039c2.421,2.421 2.421,6.393 -0.062,8.751c-1.117,1.304 -2.731,1.862 -4.282,1.862Z" style="fill:#e1007a;fill-rule:nonzero;"/>
        <path d="M22.478,99.699c-1.241,-0 -2.482,-0.373 -3.6,-1.118c-1.644,-1.156 -2.625,-3.045 -2.625,-5.056c0,-1.279 0.397,-2.527 1.136,-3.571c12.289,-17.378 27.991,-31.032 46.61,-40.652c39.039,-20.171 88.939,-20.233 128.039,-0.124c18.558,9.558 34.198,23.088 46.549,40.342c1.986,2.793 1.365,6.641 -1.428,8.627c-2.793,1.986 -6.703,1.365 -8.689,-1.427c-11.171,-15.641 -25.322,-27.929 -42.08,-36.494c-35.625,-18.309 -81.118,-18.247 -116.681,0.124c-16.819,8.689 -31.032,21.04 -42.142,36.804c-1.241,1.676 -3.165,2.545 -5.089,2.545Z" style="fill:#91e100;fill-rule:nonzero;"/>
        <path d="M200.107,34.531c-0.993,-0 -1.924,-0.248 -2.855,-0.683c-23.771,-12.289 -44.438,-17.564 -69.14,-17.564c-24.64,-0 -47.852,5.896 -69.14,17.502c-0.834,0.396 -1.746,0.601 -2.67,0.601c-3.418,0 -6.231,-2.813 -6.231,-6.231c-0,-2.152 1.115,-4.158 2.943,-5.293c23.15,-12.599 48.41,-18.992 75.098,-18.992c26.439,0 49.527,5.834 74.85,18.93c3.041,1.551 4.22,5.337 2.668,8.378c-1.117,2.111 -3.289,3.352 -5.523,3.352Z" style="fill:#00e1a8;fill-rule:nonzero;"/>
    </g>
</svg>
